<svg version="1.2" xmlns="http://www.w3.org/2000/svg" viewBox="0 0 400 400" width="16" height="16"><style>.a{opacity:.6;fill:#62b543}.b{opacity:.7;fill:#231f20}</style><path fill-rule="evenodd" class="a" d="m200 375c-96.8 0-175-78.2-175-175 0-96.8 78.2-175 175-175 96.8 0 175 78.2 175 175 0 96.8-78.2 175-175 175z"/><path class="b" d="m250 303.8h-98v-24.2h35.2v-93.4h-33.7v-24.2h64.3v117.6h32.2zm-49.3-167.2q-8.3 0-14.1-5.5-5.5-5.8-5.5-13.5 0-8.2 5.5-13.7 5.5-5.6 14.1-5.6 8 0 13.8 5.9 6.1 5.8 6.1 13.4 0 7.7-6.1 13.5-5.8 5.5-13.8 5.5z"/></svg>