<?xml version="1.0" encoding="utf-8"?>
<svg xmlns="http://www.w3.org/2000/svg" shape-rendering="geometricPrecision" text-rendering="geometricPrecision" image-rendering="optimizeQuality" fill-rule="evenodd" clip-rule="evenodd" viewBox="0 0 479 511.915">
  <path fill-rule="nonzero" d="M 198.372 266.033 L 198.372 246.029 L 234.328 246.029 L 234.328 67.753 C 234.328 59.783 237.583 52.541 242.824 47.301 C 248.064 42.061 255.305 38.806 263.275 38.806 L 333.431 38.806 C 338.955 38.806 343.433 43.284 343.433 48.808 C 343.433 54.332 338.955 58.81 333.431 58.81 L 263.275 58.81 C 260.825 58.81 258.59 59.82 256.966 61.444 C 255.285 63.113 254.337 65.384 254.333 67.753 L 254.333 246.029 L 333.503 246.029 C 339.027 246.029 343.505 250.507 343.505 256.031 C 343.505 261.555 339.027 266.033 333.503 266.033 L 254.333 266.033 L 254.333 444.309 C 254.337 446.678 255.285 448.949 256.966 450.618 L 256.947 450.637 C 258.627 452.312 260.903 453.253 263.275 453.252 L 333.503 453.252 C 339.027 453.252 343.505 457.73 343.505 463.254 C 343.505 468.778 339.027 473.256 333.503 473.256 L 263.275 473.256 C 255.332 473.256 248.105 470.001 242.862 464.761 L 242.844 464.741 L 242.824 464.761 C 237.583 459.52 234.328 452.279 234.328 444.309 L 234.328 266.033 L 198.372 266.033 Z M 367.764 414.525 L 467.147 414.525 C 473.666 414.525 479 419.861 479 426.378 L 479 500.062 C 479 506.578 473.664 511.915 467.147 511.915 L 367.764 511.915 C 361.248 511.915 355.912 506.581 355.912 500.062 L 355.912 426.378 C 355.912 419.859 361.245 414.525 367.764 414.525 Z M 367.764 207.336 L 467.147 207.336 C 473.666 207.336 479 212.672 479 219.189 L 479 292.873 C 479 299.389 473.664 304.726 467.147 304.726 L 367.764 304.726 C 361.248 304.726 355.912 299.392 355.912 292.873 L 355.912 219.189 C 355.912 212.67 361.245 207.336 367.764 207.336 Z M 367.764 0 L 467.147 0 C 473.666 0 479 5.336 479 11.853 L 479 85.536 C 479 92.053 473.664 97.389 467.147 97.389 L 367.764 97.389 C 361.248 97.389 355.912 92.056 355.912 85.536 L 355.912 11.853 C 355.912 5.334 361.245 0 367.764 0 Z" style="fill: rgb(154, 167, 176); fill-opacity: 0.8;"/>
  <rect style="stroke: rgb(0, 0, 0); fill-rule: evenodd; paint-order: stroke; stroke-width: 0px; fill-opacity: 0.7; fill: rgb(185, 155, 248);" transform="matrix(1, 0, -0.003834, 1, -11.831527, -52.355362)" x="12.46" y="176.635" width="199.365" height="262.171" rx="25.048" ry="25.048"/>
</svg>