<svg version="1.2" xmlns="http://www.w3.org/2000/svg" viewBox="0 0 400 400" width="16" height="16"><style>.a{opacity:.6;fill:#b99bf8}.b{opacity:.7;fill:#231f20}</style><path fill-rule="evenodd" class="a" d="m200 375c-96.8 0-175-78.2-175-175 0-96.8 78.2-175 175-175 96.8 0 175 78.2 175 175 0 96.8-78.2 175-175 175z"/><path fill-rule="evenodd" class="b" d="m171.3 323.1h-30.9v-192.9h30.3v22.7q4-9.2 10.1-14.7 6.4-5.9 14.1-8.3 7.6-2.8 16.5-2.8 11.7 0 21.8 4.9 10.4 4.6 18.3 13.8 8 9.2 12.6 23 4.6 13.8 4.6 32.1 0 18.7-4.9 32.8-4.9 14.1-13.2 23.6-7.9 9.2-18.4 13.8-10.4 4.6-21.4 4.6-7.7 0-15.3-1.9-7.4-2.1-13.5-6.1-6.1-4.3-10.7-9.8zm31.8-72q7.1 0 13.2-2.4 6.1-2.8 11-8.3 4.9-5.8 7.7-15.6 2.8-10.1 2.8-24.5 0-15.3-4-26-3.7-10.7-11.1-16.6-7-5.8-17.1-6.1-7.7-0.3-14.1 2.8-6.4 2.7-11 9.2-4.6 6.1-7.1 16.5-2.1 10.1-2.1 24.2 0 9.5 1.2 17.1 1.5 7.4 4.3 13.2 2.8 5.5 6.4 9.2 4 3.7 8.9 5.5 5.2 1.8 11 1.8z"/></svg>