<svg version="1.2" xmlns="http://www.w3.org/2000/svg" viewBox="0 0 400 400" width="16" height="16"><style>.a{opacity:.6;fill:#f4af3d}.b{opacity:.7;fill:#231f20}</style><path fill-rule="evenodd" class="a" d="m200 375c-96.8 0-175-78.2-175-175 0-96.8 78.2-175 175-175 96.8 0 175 78.2 175 175 0 96.8-78.2 175-175 175z"/><path class="b" d="m203.1 275.4q-12.8 0-24.2-2.5-11.3-2.4-21.4-7.3-9.8-4.9-18.1-12.6l14.1-25.7 1.9-2.8 2.1 1.3q0.6 2.4 1.5 5.2 1 2.4 4.3 6.1 7.4 6.4 16.9 10.4 9.5 3.7 23.3 3.7 9.4 0 15.9-2.2 6.7-2.4 10.4-6.4 3.7-4.3 3.7-9.5 0-4-2.2-6.7-1.8-3.1-5.8-5.5-4-2.8-10.4-5.3-6.4-2.7-15.6-5.2-15.7-4.6-27.3-10.4-11.6-6.1-18.1-14.4-6.4-8.2-6.4-19.6 0-11.3 6.4-19.9 6.8-8.9 19-14.1 12.3-5.2 29.1-5.2 9.2 0 17.2 1.6 8.2 1.2 15 3.9 7 2.8 13.2 7.1 6.1 4 11.6 9.5l-15.6 20.8-1.9 2.5-2.1-1.9q-0.3-2.4-1.5-4.6-1-2.1-4.3-5.5-6.8-4.9-14.7-7.3-8-2.5-16.3-2.5-10.7 0-19 3.7-7.9 3.7-7.9 11 0 4.3 3.4 8 3.6 3.7 11.6 7.3 8 3.4 21.7 7.1 17.5 4.6 28.2 10.7 10.7 5.8 15.6 13.8 5.2 7.9 5.2 18.7 0 11.9-6.7 22.3-6.4 10.1-19.6 16.2-13.2 6.2-32.2 6.2z"/></svg>