<svg version="1.2" xmlns="http://www.w3.org/2000/svg" viewBox="0 0 400 400" width="16" height="16"><style>.a{opacity:.6;fill:#40b6e0}.b{opacity:.7;fill:#231f20}</style><path fill-rule="evenodd" class="a" d="m200 375c-96.8 0-175-78.2-175-175 0-96.8 78.2-175 175-175 96.8 0 175 78.2 175 175 0 96.8-78.2 175-175 175z"/><path class="b" d="m190.3 275.4q-8.6 0-16.3-2.2-7.3-2.4-13.4-7.3-6.2-4.9-10.7-12.3-4.3-7.3-6.8-17.7-2.1-10.5-2.1-23.6l0.3-82.1h30v82.1q0 10.7 1.8 18.4 2.2 7.3 5.5 11.9 3.7 4.6 8.3 6.7 4.6 1.9 9.8 1.9 6.8 0 12.6-2.5 5.8-2.4 10.1-7.3 4.6-5.2 6.7-12.9 2.5-8 2.5-18.4v-79.9h30.6v119.4q0 6.2 0.3 11.7 0.6 5.2 2.8 10.7h-28.5q-1.6-3.4-2.2-6.4-0.6-3.4-0.9-6.5 0-3.3 0-6.7-3.1 5.8-7.6 10.1-4.3 4.3-9.8 7.4-5.3 2.7-11.1 4.2-5.5 1.3-11.9 1.3z"/></svg>